<svg xmlns="http://www.w3.org/2000/svg" width="2880" height="1245" viewBox="0 0 2880 1245" fill="none" class="injected-svg" data-src="//images.ctfassets.net/9uo1qvvet3xa/6iHsG0qmHyclLvoUlKpJnL/7616f0a7f88051a7d3d15807c82458f8/24Q4_RunnerFranchise_Site_HomepageHero_Desktop_2880x1245.svg" xmlns:xlink="http://www.w3.org/1999/xlink" role="img" aria-hidden="true" focusable="false">
<text fill="#212121" xml:space="preserve" style="white-space: pre" font-family="Geograph" font-size="40" letter-spacing="0.1em"><tspan x="2203.95" y="124.2">THE RUNNER COLLECTION</tspan></text>
<path d="M2642.51 180L2795 180" stroke="#212121" stroke-opacity="0.5" stroke-width="3.25431" stroke-linecap="round"/>
<path d="M2365.17 422.883H2379.32C2391.93 422.883 2398.69 428.858 2398.69 437.928C2398.69 444.142 2394.76 448.521 2389.45 450.345C2396.68 451.94 2402.31 456.715 2402.31 464.754C2402.31 475.107 2394.11 480.998 2382.14 480.998H2365.18V422.871L2365.17 422.883ZM2378.92 448.281C2386.56 448.281 2391.38 445.09 2391.38 438.731C2391.38 432.373 2386.56 429.098 2378.92 429.098H2372.49V448.293H2378.92V448.281ZM2381.74 474.795C2389.38 474.795 2394.84 471.136 2394.84 464.37C2394.84 457.603 2389.38 454.016 2381.74 454.016H2372.5V474.795H2381.74Z" fill="#212121"/>
<path d="M2426.02 481.01V453.776L2404.16 422.883H2412.6L2429.73 447.009L2446.92 422.883H2455.36L2433.51 453.776V481.01H2426.03H2426.02Z" fill="#212121"/>
<path d="M2524.64 422.884H2531.96V483.002L2489.2 438.409V481.011H2481.88V420.893L2524.64 465.486V422.884Z" fill="#212121"/>
<path d="M2598.6 481.009H2590.73L2583.5 465.161H2556.81L2549.58 481.009H2541.78L2570.15 420.807L2598.61 481.009H2598.6ZM2559.53 459.27H2580.75L2570.14 436.019L2559.53 459.27Z" fill="#212121"/>
<path d="M2621.02 429.086V481.01H2613.55V429.086H2593.78V422.871H2640.8V429.086H2621.02Z" fill="#212121"/>
<path d="M2672.31 475.431C2681.08 475.431 2687.26 469.3 2687.26 458.227V422.871H2694.66V458.383C2694.66 473.2 2684.78 481.958 2672.32 481.958C2659.86 481.958 2649.98 473.2 2649.98 458.383V422.871H2657.38V458.227C2657.38 469.3 2663.57 475.431 2672.33 475.431H2672.31Z" fill="#212121"/>
<path d="M2716.59 481.01H2709.19V422.883H2723.67C2735.8 422.883 2744.72 429.013 2744.72 439.919C2744.72 448.365 2739.34 453.86 2731.31 455.923L2751.81 481.01H2743.04L2723.35 456.799H2716.59V481.01ZM2716.59 450.824H2723.59C2731.55 450.824 2737.18 446.997 2737.18 439.919C2737.18 432.841 2731.55 429.013 2723.59 429.013H2716.59V450.836V450.824Z" fill="#212121"/>
<path d="M2760.56 422.883H2795.28V429.097H2767.88V448.293H2793.04V454.508H2767.88V474.819H2795.52V481.034H2760.56V422.907V422.883Z" fill="#212121"/>
<text fill="#212121" xml:space="preserve" style="white-space: pre" font-family="Self Modern" font-size="164.279" letter-spacing="0px"><tspan x="2058.1" y="364.138">m</tspan><tspan x="2350.79" y="364.138">rt</tspan><tspan x="2725.87" y="364.138">e</tspan></text>
<text fill="#212121" xml:space="preserve" style="white-space: pre" font-family="Self Modern" font-size="164.279" letter-spacing="-7.26471px"><tspan x="1970.07" y="364.138">o</tspan><tspan x="2212.59" y="364.138">fo</tspan></text>
<text fill="#212121" xml:space="preserve" style="white-space: pre" font-family="Self Modern" font-size="164.279" letter-spacing="-3.63235px"><tspan x="2496.94" y="364.138">ab</tspan></text>
<text fill="#212121" xml:space="preserve" style="white-space: pre" font-family="Self Modern" font-size="164.279" letter-spacing="-6.05392px"><tspan x="2679.31" y="364.138">l</tspan></text>
<text fill="#212121" xml:space="preserve" style="white-space: pre" font-family="Self Modern" font-size="164.279" letter-spacing="-1.21078px"><tspan x="1853.05" y="364.138">C</tspan></text>
<text fill="#212121" xml:space="preserve" style="white-space: pre" font-family="Geograph" font-size="30" letter-spacing="0.12em"><tspan x="2025.46" y="939.9">OUR ICONIC EVERYDAY SNEAKS ARE A SOFT, </tspan><tspan x="2193.3" y="981.9">PILLOWY RETREAT FOR YOUR FEET.</tspan></text>
</svg>