<svg xmlns="http://www.w3.org/2000/svg" width="860" height="1078" viewBox="0 0 860 1078" fill="none" class="injected-svg" data-src="//images.ctfassets.net/9uo1qvvet3xa/7F9ESYRRJ8u12bGBqsQcTs/4397d0d69dbd0fcab22bf09da2c44e52/24Q4_RunnerFranchise_Site_HomepageHero_Mobile_860x1078.svg" xmlns:xlink="http://www.w3.org/1999/xlink" role="img" aria-hidden="true" focusable="false">
<text fill="#212121" xml:space="preserve" style="white-space: pre" font-family="Geograph" font-size="28.6" letter-spacing="0.1em"><tspan x="219.198" y="96.878">THE RUNNER COLLECTION</tspan></text>
<path d="M375.986 137.04L485.014 137.04" stroke="#212121" stroke-opacity="0.5" stroke-width="2.32683" stroke-linecap="round"/>
<path d="M276.404 310.7H286.517C295.539 310.7 300.37 314.972 300.37 321.457C300.37 325.9 297.556 329.031 293.764 330.335C298.933 331.476 302.959 334.89 302.959 340.637C302.959 348.04 297.097 352.252 288.534 352.252H276.412V310.691L276.404 310.7ZM286.231 328.86C291.694 328.86 295.14 326.578 295.14 322.032C295.14 317.485 291.694 315.143 286.231 315.143H281.633V328.868H286.231V328.86ZM288.248 347.817C293.712 347.817 297.617 345.201 297.617 340.363C297.617 335.525 293.712 332.96 288.248 332.96H281.642V347.817H288.248Z" fill="#212121"/>
<path d="M319.912 352.26V332.788L304.284 310.699H310.319L322.562 327.95L334.857 310.699H340.891L325.263 332.788V352.26H319.921H319.912Z" fill="#212121"/>
<path d="M390.426 310.699H395.656V353.684L365.083 321.799V352.26H359.853V309.275L390.426 341.16V310.699Z" fill="#212121"/>
<path d="M443.303 352.26H437.675L432.506 340.929H413.423L408.254 352.26H402.678L422.965 309.216L443.312 352.26H443.303ZM415.371 336.717H430.541L422.956 320.093L415.371 336.717Z" fill="#212121"/>
<path d="M459.339 315.135V352.261H453.996V315.135H439.857V310.691H473.478V315.135H459.339Z" fill="#212121"/>
<path d="M496.007 348.272C502.276 348.272 506.7 343.888 506.7 335.971V310.691H511.991V336.082C511.991 346.676 504.925 352.938 496.016 352.938C487.106 352.938 480.041 346.676 480.041 336.082V310.691H485.331V335.971C485.331 343.888 489.756 348.272 496.024 348.272H496.007Z" fill="#212121"/>
<path d="M527.671 352.26H522.38V310.699H532.727C541.403 310.699 547.784 315.083 547.784 322.88C547.784 328.919 543.931 332.848 538.191 334.323L552.849 352.26H546.581L532.502 334.949H527.671V352.26ZM527.671 330.677H532.675C538.364 330.677 542.39 327.941 542.39 322.88C542.39 317.819 538.364 315.083 532.675 315.083H527.671V330.686V330.677Z" fill="#212121"/>
<path d="M559.109 310.699H583.933V315.143H564.339V328.868H582.331V333.311H564.339V347.834H584.106V352.277H559.109V310.716V310.699Z" fill="#212121"/>
<text fill="#212121" xml:space="preserve" style="white-space: pre" font-family="Self Modern" font-size="117.46" letter-spacing="0px"><tspan x="234.473" y="268.699">m</tspan><tspan x="443.747" y="268.699">rt</tspan><tspan x="711.929" y="268.699">e</tspan></text>
<text fill="#212121" xml:space="preserve" style="white-space: pre" font-family="Self Modern" font-size="117.46" letter-spacing="-5.19426px"><tspan x="171.531" y="268.699">o</tspan><tspan x="344.935" y="268.699">fo</tspan></text>
<text fill="#212121" xml:space="preserve" style="white-space: pre" font-family="Self Modern" font-size="117.46" letter-spacing="-2.59713px"><tspan x="548.245" y="268.699">ab</tspan></text>
<text fill="#212121" xml:space="preserve" style="white-space: pre" font-family="Self Modern" font-size="117.46" letter-spacing="-4.32855px"><tspan x="678.634" y="268.699">l</tspan></text>
<text fill="#212121" xml:space="preserve" style="white-space: pre" font-family="Self Modern" font-size="117.46" letter-spacing="-0.865711px"><tspan x="87.858" y="268.699">C</tspan></text>
<g filter="url(#filter0_d_2402_26314-19)">
<text fill="#212121" xml:space="preserve" style="white-space: pre" font-family="Geograph" font-size="29" letter-spacing="0.1em"><tspan x="66.1432" y="821.17">OUR ICONIC EVERYDAY SNEAKS ARE A SOFT, </tspan><tspan x="144.656" y="862.17">PILLOWY RETREAT FOR YOUR FEET.</tspan></text>
</g>
<defs>
<filter id="filter0_d_2402_26314-19" x="23.3032" y="755.076" width="808.059" height="151.678" filterUnits="userSpaceOnUse" color-interpolation-filters="sRGB">
<feFlood flood-opacity="0" result="BackgroundImageFix"/>
<feColorMatrix in="SourceAlpha" type="matrix" values="0 0 0 0 0 0 0 0 0 0 0 0 0 0 0 0 0 0 127 0" result="hardAlpha"/>
<feOffset/>
<feGaussianBlur stdDeviation="22"/>
<feComposite in2="hardAlpha" operator="out"/>
<feColorMatrix type="matrix" values="0 0 0 0 0 0 0 0 0 0 0 0 0 0 0 0 0 0 0.4 0"/>
<feBlend mode="normal" in2="BackgroundImageFix" result="effect1_dropShadow_2402_26314"/>
<feBlend mode="normal" in="SourceGraphic" in2="effect1_dropShadow_2402_26314" result="shape"/>
</filter>
</defs>
</svg>