<svg width="100%" height="100%" viewBox="0 0 16 16" fill="none" xmlns="http://www.w3.org/2000/svg"><path d="M8 15C11.866 15 15 11.866 15 8C15 4.13401 11.866 1 8 1C4.13401 1 1 4.13401 1 8C1 11.866 4.13401 15 8 15Z" fill="#F5F9FA" fill-opacity="0.9"/><path d="M8 12C7.73478 12 7.48043 11.9027 7.29289 11.7296C7.10536 11.5565 7 11.3217 7 11.0769V6.92308C7 6.67826 7.10536 6.44347 7.29289 6.27036C7.48043 6.09725 7.73478 6 8 6C8.26522 6 8.51957 6.09725 8.70711 6.27036C8.89464 6.44347 9 6.67826 9 6.92308V11.0769C9 11.3217 8.89464 11.5565 8.70711 11.7296C8.51957 11.9027 8.26522 12 8 12V12Z" fill="#002F36"/><path d="M8 5C8.55228 5 9 4.55228 9 4C9 3.44772 8.55228 3 8 3C7.44772 3 7 3.44772 7 4C7 4.55228 7.44772 5 8 5Z" fill="#002F36"/></svg>